<?xml version="1.0" encoding="UTF-8"?> <svg xmlns="http://www.w3.org/2000/svg" width="100" height="34" viewBox="0 0 100 34" fill="none"><path d="M21.6883 22.0594C21.6897 24.9143 20.5886 27.6571 18.619 29.706C16.6493 31.7548 13.9663 32.9483 11.1393 33.033C11.948 32.6551 12.6325 32.0512 13.1117 31.2928C13.5909 30.5344 13.8448 29.6533 13.8432 28.7537C13.8656 28.5708 13.8656 28.3861 13.8432 28.2033C13.7129 27.1081 13.2048 26.0939 12.4078 25.3392C12.2743 25.2043 12.1406 25.1145 11.9959 24.9798C11.2567 24.2896 10.6672 23.4522 10.265 22.5202C9.86255 21.5884 9.65642 20.5824 9.65917 19.5659V19.33C8.97494 19.7783 8.41271 20.3926 8.02382 21.1165C7.63516 21.8405 7.43223 22.6512 7.43361 23.4747C7.43452 24.294 7.62507 25.1017 7.99011 25.8333C8.08091 25.9581 8.15566 26.0939 8.21253 26.2376C8.43197 26.6299 8.55762 27.0683 8.57986 27.5182C8.57986 27.9769 8.39918 28.4169 8.07793 28.7412C7.75646 29.0656 7.32056 29.2478 6.86609 29.2478C6.41163 29.2478 5.97573 29.0656 5.65426 28.7412C5.33301 28.4169 5.15232 27.9769 5.15232 27.5182C5.10738 26.8491 5.29655 26.1853 5.68659 25.6424C4.95742 26.5066 4.56211 27.6076 4.57381 28.7423C4.56486 29.784 4.915 30.7966 5.56414 31.6066C3.86757 30.658 2.45533 29.2656 1.47623 27.5756C0.497125 25.8859 -0.0126039 23.961 0.000236741 22.0032C0.00780356 21.5639 0.0373831 21.1253 0.0892043 20.6891C0.388896 18.1346 1.57092 15.7684 3.42755 14.0062C3.78365 13.7254 4.1065 13.4558 4.41788 13.1862C6.14449 11.5853 7.52211 9.63886 8.46269 7.47116C9.40327 5.30345 9.88663 2.96181 9.88181 0.595291V0C11.477 1.05248 12.7868 2.49022 13.6923 4.18285C14.5978 5.8755 15.0704 7.76948 15.0674 9.69302C15.0541 10.4077 14.9947 11.1206 14.8892 11.8271C14.6652 13.01 14.2518 14.148 13.6652 15.1967C13.4453 15.4731 13.2656 15.7793 13.1312 16.1065C12.6412 17.0323 12.3637 18.0571 12.3188 19.1055C12.2901 19.6492 12.3718 20.1931 12.5582 20.7039C12.7446 21.2147 13.0321 21.6819 13.4034 22.077C13.7746 22.4719 14.2215 22.7866 14.717 23.0016C15.2128 23.2164 15.7463 23.3273 16.2859 23.3273C16.8252 23.3273 17.359 23.2164 17.8545 23.0016C18.35 22.7866 18.7971 22.4719 19.1681 22.077C19.5394 21.6819 19.8269 21.2147 20.0136 20.7039C20.2 20.1931 20.2814 19.6492 20.2529 19.1055C20.3364 17.5523 19.9058 16.0151 19.0287 14.7361C20.7436 16.7666 21.6863 19.3467 21.6883 22.0145" fill="#E94F26"></path><path d="M30.6355 11.0821C30.0273 10.8904 29.4316 10.6609 28.8521 10.3951C28.4398 10.2034 28.0534 9.96057 27.7018 9.67252C27.3161 9.31388 27.0131 8.87564 26.8138 8.38796C26.6142 7.90046 26.5233 7.37545 26.547 6.84917C26.5709 6.32288 26.7087 5.80817 26.9512 5.34052C27.1937 4.87306 27.5351 4.46387 27.9515 4.14144C29.0835 3.39621 30.4233 3.03059 31.7766 3.09769C32.83 3.0464 33.8811 3.23243 34.8529 3.64199C35.1721 3.77085 35.4471 3.98923 35.6448 4.27103C35.8427 4.55284 35.9548 4.88574 35.9676 5.22986C35.9684 5.57472 35.8693 5.91258 35.6823 6.20229C35.6112 6.32196 35.5109 6.42159 35.3907 6.49181C35.2707 6.56203 35.1348 6.60045 34.9957 6.60376C34.7588 6.60891 34.5242 6.56001 34.3091 6.46093C33.6195 6.19898 32.8888 6.06295 32.1513 6.05946C31.6787 6.02251 31.2049 6.11185 30.778 6.31828C30.6494 6.3817 30.5407 6.4795 30.4637 6.60064C30.3865 6.72159 30.3442 6.86167 30.3411 7.00505C30.3408 7.10303 30.3641 7.19972 30.4091 7.28667C30.4541 7.3738 30.5195 7.44843 30.5996 7.50468C30.8526 7.68263 31.1327 7.8181 31.429 7.90615L32.5436 8.26296C33.7005 8.57767 34.7669 9.16149 35.6555 9.96682C35.9781 10.3085 36.23 10.7108 36.3967 11.1501C36.5635 11.5894 36.642 12.0575 36.6274 12.5271C36.6408 13.0992 36.5128 13.6657 36.2546 14.1762C35.9963 14.6867 35.616 15.1255 35.1473 15.4532C33.9414 16.256 32.5099 16.6501 31.0634 16.5773C29.9334 16.6236 28.8088 16.4003 27.7821 15.926C27.4197 15.785 27.1068 15.5409 26.8818 15.2238C26.6567 14.9067 26.5295 14.5306 26.5159 14.1418C26.5093 13.7714 26.622 13.4087 26.8369 13.1071C26.9207 12.9784 27.0339 12.8714 27.1673 12.7955C27.3007 12.7194 27.4502 12.6764 27.6037 12.67C27.876 12.6815 28.1391 12.7714 28.3616 12.9286C29.1468 13.3562 30.0268 13.5801 30.9208 13.5799C31.4252 13.6277 31.9315 13.5119 32.3652 13.2497C32.4921 13.1749 32.5983 13.0696 32.6746 12.9435C32.7508 12.8174 32.7947 12.6744 32.8021 12.5271C32.7995 12.4097 32.7719 12.2938 32.7212 12.1878C32.6705 12.0817 32.5978 11.9876 32.5079 11.9117C32.1991 11.6953 31.8595 11.5268 31.5003 11.412L30.6355 11.0821Z" fill="white"></path><path d="M41.5762 9.16405C41.1223 9.69291 40.8728 10.367 40.8728 11.0642C40.8728 11.7613 41.1223 12.4354 41.5762 12.9642C41.8273 13.1999 42.1233 13.3823 42.4467 13.5003C42.7701 13.6183 43.114 13.6698 43.4576 13.6512C43.8352 13.6653 44.2122 13.6141 44.5723 13.4995C44.7853 13.4431 45.0032 13.4073 45.2231 13.3926C45.3646 13.3876 45.505 13.4185 45.6314 13.4824C45.7576 13.5464 45.8656 13.6413 45.9454 13.7584C46.1328 14.0177 46.2327 14.3302 46.2307 14.6505C46.2313 14.9286 46.1537 15.2016 46.0073 15.438C45.8607 15.6745 45.6508 15.8652 45.4015 15.9885C44.6985 16.3444 43.914 16.5075 43.1278 16.4613C42.3297 16.4617 41.5372 16.329 40.7826 16.0688C40.0796 15.8326 39.4287 15.4631 38.8655 14.9804C38.3527 14.5041 37.9481 13.9231 37.6797 13.2766C37.3725 12.5984 37.2143 11.8622 37.2159 11.1177C37.2134 10.301 37.3708 9.4918 37.6797 8.73574C37.9217 8.03408 38.3577 7.41533 38.937 6.95154C39.4601 6.50264 40.0659 6.16018 40.7203 5.94345C41.4336 5.72451 42.1764 5.61624 42.9226 5.62231C43.7271 5.58297 44.5268 5.76826 45.2321 6.1576C45.4807 6.30025 45.6881 6.50521 45.8335 6.75227C45.9788 6.99952 46.0575 7.2804 46.0613 7.56717C46.0733 7.8475 45.9985 8.1247 45.8473 8.3611C45.7728 8.4725 45.6698 8.56184 45.5491 8.61993C45.4283 8.67801 45.2942 8.70265 45.1606 8.69125C45.0135 8.67857 44.8674 8.65486 44.7239 8.61975C44.3166 8.48151 43.8872 8.42103 43.4576 8.44144C43.1173 8.43206 42.7785 8.49106 42.4614 8.61515C42.1444 8.73941 41.8554 8.926 41.612 9.16405" fill="white"></path><path d="M56.7791 15.1678C56.7791 15.6318 56.6722 15.9619 56.4225 16.0599C56.1704 16.2047 55.8838 16.2786 55.5933 16.274H55.1564C54.6252 16.3307 54.0907 16.2047 53.6404 15.9172C53.478 15.7446 53.3547 15.5388 53.2793 15.3139C53.2038 15.0891 53.1779 14.8505 53.2036 14.6149V9.96686C53.2036 8.91428 52.7043 8.40583 51.7235 8.40583C51.2285 8.39076 50.7398 8.51759 50.3146 8.77145V15.1321C50.3146 15.5961 50.2075 15.9261 49.958 16.0242C49.7057 16.1691 49.4193 16.243 49.1286 16.2384H48.6917C48.1607 16.295 47.626 16.1691 47.1758 15.8816C47.0138 15.7086 46.8909 15.5027 46.8155 15.2779C46.7402 15.0533 46.7139 14.8149 46.7389 14.579V3.3832C46.7215 3.21923 46.7422 3.05324 46.7994 2.89846C46.8567 2.74386 46.9489 2.60434 47.0689 2.4911C47.3164 2.3354 47.6062 2.26059 47.8981 2.27713H48.3707C48.9019 2.22125 49.4362 2.34698 49.8865 2.63393C50.0456 2.80857 50.166 3.01482 50.2396 3.23945C50.3135 3.4639 50.3388 3.7014 50.3146 3.93633V5.99718C50.6319 5.8799 50.9606 5.79626 51.2954 5.74736C51.6503 5.67347 52.0118 5.63449 52.3743 5.63137C53.5526 5.55104 54.7169 5.92439 55.6289 6.67512C56.0196 7.07954 56.3209 7.56189 56.5129 8.09075C56.7049 8.61943 56.7835 9.18285 56.7435 9.74388L56.7791 15.1678Z" fill="white"></path><path d="M67.2561 15.0608C66.163 16.0556 64.7198 16.5755 63.2437 16.506C62.5166 16.5396 61.7903 16.4258 61.1083 16.1714C60.4265 15.9168 59.803 15.5269 59.2757 15.0251C58.749 14.5106 58.3381 13.8894 58.0706 13.2034C57.8029 12.5172 57.6849 11.7817 57.7243 11.0464C57.7237 10.2828 57.8566 9.52508 58.1165 8.80725C58.3604 8.15522 58.744 7.56441 59.2401 7.07654C59.7703 6.58095 60.395 6.19768 61.0769 5.94933C61.7585 5.70099 62.4834 5.5929 63.208 5.63132C63.9577 5.61698 64.7036 5.73775 65.4105 5.98812C66.0728 6.22525 66.6797 6.59566 67.1938 7.07654C67.6987 7.5554 68.081 8.14916 68.3083 8.80725C68.5757 9.51092 68.7116 10.2578 68.7096 11.0106C68.7485 11.7506 68.6376 12.4911 68.3831 13.187C68.1288 13.883 67.7364 14.5205 67.2294 15.0608M59.5611 1.5098C59.7297 1.33516 59.932 1.19693 60.156 1.10336C60.3798 1.0098 60.6203 0.962919 60.8628 0.965677C61.1085 0.957037 61.3532 0.997662 61.5829 1.08498C61.8125 1.1723 62.0226 1.30447 62.2004 1.47414C62.3803 1.63866 62.5221 1.84031 62.616 2.06531C62.7099 2.29031 62.7536 2.53296 62.7443 2.77653C62.7435 3.01899 62.6932 3.25888 62.5965 3.48131C62.5001 3.70355 62.3592 3.90392 62.1826 4.0701C61.8195 4.40668 61.34 4.58903 60.845 4.57856C60.6025 4.58131 60.362 4.53444 60.138 4.44087C59.9142 4.3473 59.7119 4.20889 59.5432 4.03444C59.3705 3.87377 59.2329 3.67911 59.1394 3.46256C59.0457 3.24602 58.9979 3.01256 58.9994 2.77653C59.0014 2.53995 59.0506 2.30594 59.144 2.08847C59.2375 1.87101 59.3731 1.67432 59.5432 1.5098M61.8526 13.0001C62.0047 13.2214 62.2105 13.4005 62.4507 13.5207C62.6908 13.6407 62.9576 13.6981 63.2258 13.6869C63.4897 13.7023 63.753 13.6468 63.9882 13.526C64.2235 13.4052 64.422 13.2236 64.5632 13.0001C64.8993 12.4054 65.0628 11.7288 65.036 11.0464C65.0806 10.3622 64.9157 9.68059 64.5632 9.09254C64.404 8.87857 64.1969 8.70467 63.9584 8.58482C63.7201 8.46515 63.457 8.40265 63.1902 8.40265C62.9234 8.40265 62.6603 8.46515 62.4218 8.58482C62.1835 8.70467 61.9763 8.87857 61.817 9.09254C61.4671 9.68151 61.3054 10.3631 61.3534 11.0464C61.3155 11.7334 61.4899 12.4155 61.8526 13.0001ZM64.2244 1.5098C64.3992 1.33829 64.6073 1.20483 64.8359 1.11733C65.0645 1.02983 65.3087 0.990309 65.553 1.00134C65.7957 0.998581 66.0363 1.04546 66.26 1.13902C66.4838 1.23259 66.6863 1.37101 66.855 1.54546C67.0275 1.70814 67.1647 1.90447 67.2585 2.1223C67.352 2.34031 67.3997 2.57506 67.3988 2.81219C67.406 3.04895 67.3608 3.28443 67.2669 3.50171C67.1728 3.71918 67.0323 3.91311 66.855 4.0701C66.6823 4.24914 66.4741 4.38995 66.2437 4.4837C66.0133 4.57745 65.766 4.62194 65.5174 4.61422C65.0252 4.62525 64.5482 4.44271 64.1888 4.10576C64.0082 3.94381 63.8658 3.74381 63.7717 3.5201C63.6776 3.29638 63.6343 3.05465 63.6449 2.81219C63.683 2.3245 63.8877 1.86458 64.2244 1.5098Z" fill="white"></path><path d="M76.1371 9.70818C76.1534 9.5352 76.1299 9.36057 76.068 9.19825C76.0061 9.03575 75.9078 8.88979 75.7805 8.77141C75.4929 8.54163 75.1317 8.42435 74.764 8.44145C74.2251 8.42252 73.6943 8.57564 73.2482 8.87858V15.2034C73.2482 15.6674 73.1411 15.9975 72.8916 16.0955C72.6364 16.2411 72.3468 16.315 72.0534 16.3097H71.6253C71.0943 16.3663 70.5596 16.2404 70.1095 15.9529C69.9469 15.7803 69.8238 15.5744 69.7483 15.3496C69.6729 15.1247 69.647 14.8861 69.6725 14.6505V8.40579C69.6525 8.09365 69.7271 7.78262 69.8866 7.51369C70.0634 7.23777 70.2976 7.00358 70.5732 6.82674C71.1525 6.45229 71.7875 6.17232 72.4547 5.99695C73.2069 5.79254 73.9846 5.6964 74.764 5.71166C76.063 5.63262 77.3501 6.00082 78.411 6.75541C78.8345 7.09953 79.1702 7.53942 79.3903 8.03887C79.6104 8.53832 79.7087 9.08299 79.6771 9.62785V15.2303C79.6771 15.7031 79.5702 16.0242 79.3205 16.167C79.0655 16.3124 78.7759 16.3865 78.4823 16.381H78.0542C77.5232 16.4376 76.9887 16.3119 76.5384 16.0242C76.3759 15.8516 76.2527 15.6457 76.1771 15.4209C76.1018 15.1961 76.0759 14.9576 76.1014 14.7218L76.1371 9.70818Z" fill="white"></path><path d="M85.6691 16.5417C84.2207 16.4694 82.8467 15.8771 81.7992 14.8735C81.3263 14.3803 80.9575 13.7964 80.7156 13.1573C80.4734 12.5179 80.3628 11.8365 80.3905 11.1534C80.3626 10.9253 80.3626 10.6946 80.3905 10.4665C80.4045 9.79587 80.552 9.13503 80.8245 8.52216C81.097 7.90947 81.4891 7.35726 81.9776 6.89807C82.9706 6.05616 84.244 5.61976 85.5443 5.67582C86.3226 5.67307 87.0941 5.81829 87.818 6.10413C88.4804 6.37472 89.0854 6.76811 89.6014 7.26388C90.3155 8.05396 90.7124 9.08025 90.7161 10.1453C90.7451 10.2746 90.7451 10.4086 90.7161 10.5378C90.6979 10.9448 90.5333 11.3314 90.2523 11.6262C89.9269 11.8915 89.5111 12.0194 89.0932 11.983H83.5826C83.6687 12.2742 83.8115 12.5457 84.0028 12.7814C84.194 13.0172 84.4301 13.2128 84.6973 13.3569C85.2882 13.7428 85.9801 13.9444 86.6857 13.9367C87.2224 13.9431 87.757 13.8709 88.2728 13.7227C88.4708 13.6573 88.6803 13.633 88.8881 13.6512C89.0206 13.6398 89.1538 13.6635 89.2743 13.7198C89.3948 13.7762 89.4985 13.8633 89.5747 13.9724C89.7199 14.2113 89.7941 14.4867 89.7886 14.7665C89.8016 15.0203 89.7445 15.2729 89.6234 15.4963C89.5021 15.7198 89.3219 15.9056 89.1022 16.0332C88.5333 16.3643 87.8875 16.5396 87.2295 16.5417H86.4003H85.6691ZM84.3407 8.66444C83.9897 8.9455 83.747 9.33962 83.654 9.77951H87.2207C87.2266 9.58521 87.1917 9.39183 87.1178 9.21205C87.0441 9.03208 86.9333 8.86995 86.7926 8.73576C86.4351 8.41756 85.9693 8.24826 85.4908 8.26297C85.0701 8.24422 84.6583 8.38796 84.3407 8.66444Z" fill="white"></path><path d="M98.8212 15.6317C97.7737 16.2852 96.5493 16.597 95.317 16.5238C94.2903 16.5681 93.2667 16.3823 92.321 15.9797C92.0077 15.8558 91.7377 15.6428 91.5444 15.3668C91.3509 15.0909 91.2427 14.7643 91.2331 14.4273C91.2199 14.1345 91.2978 13.8446 91.4562 13.5977C91.5218 13.4858 91.6155 13.3931 91.7283 13.329C91.8409 13.2648 91.9684 13.2314 92.0981 13.2319C92.3241 13.2187 92.5492 13.2681 92.7489 13.3747C93.5199 13.6858 94.3432 13.8463 95.1744 13.8475C95.5075 13.861 95.8395 13.7999 96.1462 13.669C96.2522 13.6323 96.3441 13.5637 96.4095 13.4727C96.4749 13.3817 96.5107 13.2727 96.5118 13.1606C96.5153 13.0657 96.4931 12.9718 96.4477 12.8885C96.4021 12.8053 96.3349 12.7359 96.2533 12.6878C95.997 12.5416 95.7159 12.445 95.4239 12.4023L94.8088 12.3042C93.8098 12.1571 92.8647 11.758 92.0625 11.1444C91.7637 10.8709 91.5289 10.5348 91.3748 10.16C91.2206 9.78539 91.151 9.38135 91.1708 8.97656C91.1653 8.48704 91.2787 8.0034 91.5006 7.56719C91.7079 7.15138 92.0142 6.79292 92.3923 6.52344C93.3856 5.89678 94.5449 5.58575 95.7183 5.63133C96.6561 5.59733 97.5902 5.76773 98.4557 6.13079C98.7449 6.23961 98.9957 6.43134 99.1767 6.68207C99.3575 6.93281 99.4602 7.23134 99.4722 7.54035C99.4837 7.85175 99.4097 8.1602 99.2581 8.43245C99.1956 8.54899 99.1012 8.64531 98.986 8.7102C98.8706 8.77491 98.7392 8.80542 98.6073 8.79826C98.4826 8.79256 98.3593 8.76848 98.2417 8.72693L97.6264 8.54844C97.1222 8.40212 96.6 8.32693 96.0749 8.32546C95.7093 8.29862 95.342 8.34715 94.996 8.46811C94.8894 8.50377 94.7967 8.57197 94.7311 8.66333C94.6655 8.75451 94.6302 8.86425 94.6304 8.97656C94.6284 9.05157 94.6475 9.12547 94.6853 9.19017C94.723 9.25469 94.7783 9.30745 94.8444 9.34238C95.0956 9.47822 95.3664 9.57454 95.647 9.62785L96.289 9.77069C97.314 9.94624 98.281 10.3688 99.1065 11.0018C99.4007 11.2714 99.6326 11.6016 99.7865 11.9698C99.9405 12.338 100.013 12.735 99.9982 13.1339C100.008 13.6222 99.9016 14.1058 99.6877 14.5448C99.4736 14.9838 99.1583 15.3656 98.7677 15.6584" fill="white"></path><path d="M34.5409 20.913C35.2276 20.913 35.5932 21.127 35.7001 21.6C35.7608 21.8364 35.7968 22.0785 35.8071 22.3226C35.8071 23.3305 35.3701 23.8391 34.5409 23.8391H30.1273V26.2209H33.8812C34.5319 26.2209 34.8976 26.4439 35.0047 26.9079C35.065 27.1445 35.1008 27.3866 35.1116 27.6305C35.1116 28.6117 34.6747 29.1114 33.8455 29.1114H30.1629V32.5816C30.1629 33.2686 29.8776 33.6344 29.3335 33.7057H28.4419C27.9094 33.7647 27.3731 33.6353 26.926 33.3399C26.7712 33.1561 26.6549 32.9426 26.5845 32.7127C26.5139 32.4827 26.4906 32.241 26.5159 32.0018V22.9024C26.498 22.6419 26.5374 22.3807 26.6313 22.1371C26.7254 21.8935 26.8717 21.6737 27.0598 21.4928C27.2445 21.3097 27.4648 21.1667 27.7073 21.0731C27.9498 20.9794 28.2091 20.9371 28.4687 20.9487H34.5409V20.913Z" fill="white"></path><path d="M41.2908 33.9911C39.8323 33.9242 38.4464 33.3354 37.3853 32.3318C36.9128 31.8384 36.5444 31.2546 36.3022 30.6154C36.0602 29.9762 35.9495 29.2948 35.9766 28.6117C35.9483 28.3836 35.9483 28.1529 35.9766 27.9248C35.9886 27.2531 36.1363 26.5908 36.4104 25.9777C36.6848 25.3645 37.0802 24.813 37.5726 24.3564C38.5601 23.5042 39.8367 23.0635 41.1392 23.1253C41.9319 23.1141 42.7192 23.2566 43.4576 23.5446C44.1203 23.8143 44.7256 24.2078 45.2409 24.7044C45.9588 25.4963 46.359 26.5257 46.3645 27.5948C46.3929 27.727 46.3929 27.8639 46.3645 27.9963C46.3419 28.4012 46.1741 28.7843 45.8919 29.0757C45.733 29.2112 45.5485 29.3132 45.3493 29.3761C45.1504 29.4389 44.9405 29.4612 44.7327 29.4413H39.2311C39.4092 30.0273 39.8092 30.5204 40.3457 30.8152C40.9401 31.1926 41.6304 31.3908 42.3341 31.3862C42.8707 31.3932 43.4056 31.3211 43.9213 31.172C44.1196 31.1071 44.3287 31.0829 44.5365 31.1007C44.6691 31.0884 44.8027 31.1115 44.9234 31.168C45.0442 31.2244 45.1476 31.3121 45.2231 31.4218C45.3686 31.6639 45.4429 31.9422 45.4372 32.2248C45.4486 32.4772 45.3905 32.7279 45.2694 32.9496C45.1483 33.1715 44.969 33.3557 44.7505 33.4827C44.1835 33.8178 43.5366 33.9934 42.8781 33.9911H42.0489H41.2908ZM39.9534 26.1139C39.6008 26.3972 39.3579 26.7948 39.2668 27.238H42.8781C42.8856 27.0327 42.847 26.8284 42.7653 26.64C42.6835 26.4518 42.5606 26.2841 42.4055 26.1496C42.0447 25.8376 41.5802 25.6722 41.1036 25.6856C40.6861 25.6777 40.279 25.8167 39.9534 26.0783" fill="white"></path><path d="M46.8104 24.5259C46.8104 24.0531 46.9263 23.7319 47.1759 23.5893C47.4254 23.4369 47.7131 23.3595 48.0052 23.3663H48.4065C48.9388 23.3086 49.4746 23.438 49.9223 23.7319C50.0818 23.9064 50.2023 24.1126 50.2762 24.3373C50.3501 24.5617 50.3752 24.7994 50.3502 25.0345V29.5485C50.3229 29.7674 50.3468 29.9899 50.4197 30.1981C50.4928 30.4064 50.613 30.5948 50.7712 30.7487C50.9294 30.9025 51.121 31.0176 51.331 31.0849C51.5412 31.1522 51.7639 31.1698 51.982 31.1364C52.4209 31.1696 52.8615 31.0963 53.2659 30.9224V24.5617C53.2659 24.0889 53.3731 23.7676 53.6316 23.625C53.8809 23.4726 54.1688 23.3952 54.4608 23.402H54.862C55.3945 23.3443 55.9303 23.4737 56.3779 23.7676C56.5375 23.9421 56.658 24.1483 56.7319 24.3729C56.8056 24.5974 56.8309 24.8351 56.806 25.0702V31.4309C56.8214 31.6998 56.7701 31.9685 56.6566 32.213C56.5428 32.4573 56.3707 32.6698 56.155 32.8314C55.5648 33.2735 54.8819 33.5755 54.1576 33.7145C53.4372 33.8915 52.6971 33.9755 51.9554 33.9643C50.5898 34.0566 49.2348 33.6719 48.1212 32.8761C47.6596 32.4695 47.2988 31.9614 47.0667 31.3919C46.8347 30.8222 46.7376 30.2064 46.7836 29.5932V24.5259H46.8104Z" fill="white"></path><path d="M62.8157 33.9911C61.3571 33.9242 59.9712 33.3354 58.9103 32.3318C58.4375 31.8384 58.0691 31.2546 57.8272 30.6154C57.585 29.9762 57.4742 29.2948 57.5014 28.6117C57.4731 28.3836 57.4731 28.1529 57.5014 27.9248C57.5135 27.2531 57.6611 26.5908 57.9354 25.9777C58.2097 25.3645 58.6049 24.813 59.0975 24.3564C60.0849 23.5042 61.3615 23.0635 62.6642 23.1253C63.4452 23.1216 64.22 23.2668 64.9467 23.5536C65.6096 23.8231 66.2148 24.2168 66.7302 24.7134C67.4481 25.5053 67.8481 26.5345 67.8536 27.6036C67.8821 27.736 67.8821 27.8727 67.8536 28.0051C67.831 28.4101 67.6632 28.7933 67.381 29.0845C67.2221 29.22 67.0376 29.3222 66.8384 29.3851C66.6395 29.4477 66.4298 29.47 66.2218 29.4503H60.7559C60.9341 30.0362 61.3341 30.5294 61.8706 30.8242C62.4648 31.2016 63.1551 31.3998 63.859 31.3952C64.3957 31.4022 64.9305 31.3299 65.4461 31.181C65.6443 31.1161 65.8536 31.0919 66.0614 31.1097C66.1941 31.0972 66.3277 31.1204 66.4482 31.177C66.5689 31.2334 66.6723 31.3209 66.748 31.4308C66.8936 31.6729 66.9676 31.9512 66.9619 32.2336C66.9733 32.486 66.9152 32.7367 66.7943 32.9586C66.6733 33.1803 66.4938 33.3647 66.2753 33.4915C65.7085 33.8266 65.0614 34.0024 64.4028 34H63.5736L62.8157 33.9911ZM61.4425 26.1139C61.0899 26.3972 60.8472 26.7948 60.7559 27.238H64.3672C64.3747 27.0327 64.3362 26.8284 64.2544 26.64C64.1726 26.4518 64.0497 26.2841 63.8946 26.1496C63.5338 25.8376 63.0695 25.6722 62.5929 25.6856C62.1752 25.6777 61.7683 25.8167 61.4425 26.0783" fill="white"></path><path d="M71.8752 32.6173C71.8752 33.0901 71.768 33.4112 71.5184 33.5094C71.2687 33.6608 70.9811 33.738 70.6892 33.7323H70.2522C69.7198 33.7915 69.1835 33.6621 68.7364 33.3667C68.5738 33.1941 68.4507 32.9882 68.3752 32.7634C68.2999 32.5386 68.274 32.3 68.2995 32.0641V25.8195C68.2958 25.5595 68.3489 25.3018 68.4553 25.0645C68.5615 24.8272 68.7184 24.616 68.9148 24.4457C69.5019 23.9832 70.1791 23.649 70.9032 23.4643C71.6749 23.229 72.4771 23.1088 73.2839 23.1075C74.7284 23.1075 75.4507 23.6516 75.4507 24.7669C75.4507 24.9452 75.4507 25.0255 75.4507 25.0612C75.3794 25.5608 75.0227 25.8195 74.3361 25.8908C73.8852 25.9266 73.438 25.9983 72.9985 26.1049C72.6279 26.1823 72.2641 26.2897 71.9108 26.4261L71.8752 32.6173Z" fill="white"></path></svg> 